<svg xmlns="http://www.w3.org/2000/svg" xmlns:xlink="http://www.w3.org/1999/xlink" fill="none" version="1.1" width="24" height="24" viewBox="0 0 24 24"><g><g><g><path d="M17.790001,22.749963726043703C17.790001,22.749963726043703,6.21,22.749963726043703,6.21,22.749963726043703C3.47,22.749963726043703,1.25,20.519963726043702,1.25,17.7799637260437C1.25,17.7799637260437,1.25,10.370003226043702,1.25,10.370003226043702C1.25,9.0100035260437,2.08999997,7.300003526043701,3.17,6.460003326043701C3.17,6.460003326043701,8.559999900000001,2.260000406043701,8.559999900000001,2.260000406043701C10.1800003,1.0000004160437013,12.77,0.9400004160437012,14.45,2.1199994060437013C14.45,2.1199994060437013,20.629999,6.450003626043701,20.629999,6.450003626043701C21.82,7.280003526043701,22.75,9.060003326043702,22.75,10.5100035260437C22.75,10.5100035260437,22.75,17.789963726043702,22.75,17.789963726043702C22.75,20.519963726043702,20.530001,22.749963726043703,17.790001,22.749963726043703C17.790001,22.749963726043703,17.790001,22.749963726043703,17.790001,22.749963726043703ZM9.4799995,3.440003426043701C9.4799995,3.440003426043701,4.0899999000000005,7.640003226043701,4.0899999000000005,7.640003226043701C3.3800001,8.200003626043701,2.75,9.4700036260437,2.75,10.370003226043702C2.75,10.370003226043702,2.75,17.7799637260437,2.75,17.7799637260437C2.75,19.6899637260437,4.3,21.249963726043703,6.21,21.249963726043703C6.21,21.249963726043703,17.790001,21.249963726043703,17.790001,21.249963726043703C19.700001,21.249963726043703,21.25,19.699963726043702,21.25,17.789963726043702C21.25,17.789963726043702,21.25,10.5100035260437,21.25,10.5100035260437C21.25,9.550003526043701,20.559999,8.220003626043702,19.77,7.6800036260437015C19.77,7.6800036260437015,13.59,3.350003526043701,13.59,3.350003526043701C12.45,2.550003426043701,10.5699997,2.590003326043701,9.4799995,3.440003426043701C9.4799995,3.440003426043701,9.4799995,3.440003426043701,9.4799995,3.440003426043701Z" fill="#E1E1E1" fill-opacity="0.699999988079071"/><path d="M12,18.75C11.59,18.75,11.25,18.4099998,11.25,18C11.25,18,11.25,15,11.25,15C11.25,14.59,11.59,14.25,12,14.25C12.41,14.25,12.75,14.59,12.75,15C12.75,15,12.75,18,12.75,18C12.75,18.4099998,12.41,18.75,12,18.75C12,18.75,12,18.75,12,18.75Z" fill="#E1E1E1" fill-opacity="0.699999988079071"/><g style="opacity:0;"></g></g></g></g></svg>