<svg xmlns="http://www.w3.org/2000/svg" xmlns:xlink="http://www.w3.org/1999/xlink" fill="none" version="1.1" width="24" height="24" viewBox="0 0 24 24"><g><g><g><path d="M12,2C9.3800001,2,7.25,4.1300001,7.25,6.75C7.25,9.320000199999999,9.26,11.3999996,11.8800001,11.4899998C11.96,11.4799995,12.04,11.4799995,12.0999999,11.4899998C12.1199999,11.4899998,12.1300001,11.4899998,12.1500001,11.4899998C12.1599998,11.4899998,12.1599998,11.4899998,12.1700001,11.4899998C14.73,11.3999996,16.7399998,9.320000199999999,16.75,6.75C16.75,4.1300001,14.6199999,2,12,2C12,2,12,2,12,2Z" fill="#FFFFFF" fill-opacity="1"/><path d="M17.08000003814697,14.149999160766601C14.289999938146973,12.289999160766602,9.740000238146973,12.289999160766602,6.930000038146972,14.149999160766601C5.660000028146973,14.999999060766601,4.960000038146973,16.1499991607666,4.960000038146973,17.3799991607666C4.960000038146973,18.609999160766602,5.660000028146973,19.7499990607666,6.920000038146973,20.589999160766602C8.319999938146973,21.529998760766603,10.159999838146973,21.9999990607666,12.000000038146972,21.9999990607666C13.840000138146973,21.9999990607666,15.680000038146973,21.529998760766603,17.08000003814697,20.589999160766602C18.340000038146975,19.739999260766602,19.04000003814697,18.5999989607666,19.04000003814697,17.359999160766602C19.030000038146973,16.1299991607666,18.340000038146975,14.989999060766602,17.08000003814697,14.149999160766601C17.08000003814697,14.149999160766601,17.08000003814697,14.149999160766601,17.08000003814697,14.149999160766601Z" fill="#FFFFFF" fill-opacity="1"/><g transform="matrix(-1,-1.2246469849340659e-16,1.2246469849340659e-16,-1,48,48)" style="opacity:0;"></g></g></g></g></svg>