<svg xmlns="http://www.w3.org/2000/svg" xmlns:xlink="http://www.w3.org/1999/xlink" fill="none" version="1.1" width="24" height="24" viewBox="0 0 24 24"><g><g><g><path d="M12.159609313146973,11.62C12.129609613146972,11.62,12.109609613146972,11.62,12.079609413146972,11.62C12.029609213146973,11.61,11.959609513146972,11.61,11.899609613146973,11.62C8.999609513146972,11.53,6.809609413146973,9.25,6.809609413146973,6.4400001C6.809609413146973,3.5799999,9.139609313146973,1.25,11.999609513146972,1.25C14.859609613146972,1.25,17.189609413146975,3.5799999,17.189609413146975,6.4400001C17.17960941314697,9.25,14.979609513146972,11.53,12.189609513146973,11.62C12.179609313146972,11.62,12.169609513146973,11.62,12.159609313146973,11.62C12.159609313146973,11.62,12.159609313146973,11.62,12.159609313146973,11.62ZM11.999609513146972,2.75C9.969609513146972,2.75,8.309609413146973,4.4100000999999995,8.309609413146973,6.4400001C8.309609413146973,8.440000099999999,9.869609313146974,10.0500002,11.859609613146972,10.1199999C11.909609313146973,10.1099997,12.049609213146972,10.1099997,12.179609313146972,10.1199999C14.139609313146973,10.0299997,15.679609313146972,8.4200001,15.689609513146973,6.4400001C15.689609513146973,4.4100000999999995,14.029609213146973,2.75,11.999609513146972,2.75C11.999609513146972,2.75,11.999609513146972,2.75,11.999609513146972,2.75Z" fill="#E1E1E1" fill-opacity="0.699999988079071"/><g style="opacity:0;"></g><path d="M12.169609574999999,22.55C10.209609475,22.55,8.239609475,22.0500002,6.749609475,21.0500002C5.359609365,20.1300001,4.599609375,18.8699999,4.599609375,17.5C4.599609375,16.1300001,5.359609365,14.8599999,6.749609475,13.9299999C9.749609475,11.94,14.609609375,11.94,17.589609375000002,13.9299999C18.969609374999997,14.8499999,19.739609375,16.1099999,19.739609375,17.48C19.739609375,18.8499999,18.979609375000003,20.1199999,17.589609375000002,21.0500002C16.089609375000002,22.0500002,14.129609075,22.55,12.169609574999999,22.55C12.169609574999999,22.55,12.169609574999999,22.55,12.169609574999999,22.55ZM7.579609375,15.190000099999999C6.619609375,15.8299999,6.099609375,16.6500001,6.099609375,17.5100002C6.099609375,18.3600001,6.629609374999999,19.1799998,7.579609375,19.8099999C10.069609175,21.479999499999998,14.269609475,21.479999499999998,16.759609375,19.8099999C17.719609374999997,19.1700001,18.239609375,18.3499999,18.239609375,17.4899998C18.239609375,16.6399999,17.709609375,15.8199999,16.759609375,15.190000099999999C14.269609475,13.53,10.069609175,13.53,7.579609375,15.190000099999999C7.579609375,15.190000099999999,7.579609375,15.190000099999999,7.579609375,15.190000099999999Z" fill="#E1E1E1" fill-opacity="0.699999988079071"/></g></g></g></svg>