<svg xmlns="http://www.w3.org/2000/svg" xmlns:xlink="http://www.w3.org/1999/xlink" fill="none" version="1.1" width="24" height="24" viewBox="0 0 24 24"><g><g><g><path d="M11.5,21C16.7467,21,21,16.7467,21,11.5C21,6.2532902,16.7467,2,11.5,2C6.2532902,2,2,6.2532902,2,11.5C2,16.7467,6.2532902,21,11.5,21C11.5,21,11.5,21,11.5,21Z" fill="#FFFFFF" fill-opacity="1"/><path d="M21.300001373291018,22.000001473291015C21.120001273291017,22.000001473291015,20.940001473291016,21.930001273291015,20.810001373291016,21.800001373291018C20.810001373291016,21.800001373291018,18.950001373291016,19.940001373291015,18.950001373291016,19.940001373291015C18.680001370291016,19.670001383291016,18.680001370291016,19.230001363291017,18.950001373291016,18.950001373291016C19.220001373291016,18.680001370291016,19.660001393291015,18.680001370291016,19.940001373291015,18.950001373291016C19.940001373291015,18.950001373291016,21.800001373291018,20.810001373291016,21.800001373291018,20.810001373291016C22.070001373291014,21.080001373291015,22.070001373291014,21.520001373291016,21.800001373291018,21.800001373291018C21.660001273291016,21.930001273291015,21.480001473291015,22.000001473291015,21.300001373291018,22.000001473291015C21.300001373291018,22.000001473291015,21.300001373291018,22.000001473291015,21.300001373291018,22.000001473291015Z" fill="#FFFFFF" fill-opacity="1"/><g transform="matrix(-1,-1.2246469849340659e-16,1.2246469849340659e-16,-1,48,48)" style="opacity:0;"></g></g></g></g></svg>