<svg xmlns="http://www.w3.org/2000/svg" xmlns:xlink="http://www.w3.org/1999/xlink" fill="none" version="1.1" width="24" height="24" viewBox="0 0 24 24"><g><g><g><path d="M11.5,21.75C5.8499999,21.75,1.25,17.15,1.25,11.5C1.25,5.8499999,5.8499999,1.25,11.5,1.25C17.15,1.25,21.75,5.8499999,21.75,11.5C21.75,17.15,17.15,21.75,11.5,21.75C11.5,21.75,11.5,21.75,11.5,21.75ZM11.5,2.75C6.6700001,2.75,2.75,6.6799998,2.75,11.5C2.75,16.32,6.6700001,20.25,11.5,20.25C16.33,20.25,20.25,16.32,20.25,11.5C20.25,6.6799998,16.33,2.75,11.5,2.75C11.5,2.75,11.5,2.75,11.5,2.75Z" fill="#E1E1E1" fill-opacity="0.699999988079071"/><path d="M21.999998526708985,22.749998526708985C21.809998526708984,22.749998526708985,21.619998726708985,22.679998626708986,21.469998626708986,22.529998526708983C21.469998626708986,22.529998526708983,19.469998626708986,20.529998626708984,19.469998626708986,20.529998626708984C19.179998628708983,20.239998636708986,19.179998628708983,19.759998616708984,19.469998626708986,19.469998626708986C19.759998616708984,19.179998628708983,20.239997626708984,19.179998628708983,20.529998626708984,19.469998626708986C20.529998626708984,19.469998626708986,22.529998526708983,21.469998626708986,22.529998526708983,21.469998626708986C22.819998726708985,21.759998526708983,22.819998726708985,22.239998626708985,22.529998526708983,22.529998526708983C22.379998726708983,22.679998626708986,22.189998626708984,22.749998526708985,21.999998526708985,22.749998526708985C21.999998526708985,22.749998526708985,21.999998526708985,22.749998526708985,21.999998526708985,22.749998526708985Z" fill="#E1E1E1" fill-opacity="0.699999988079071"/><g style="opacity:0;"></g></g></g></g></svg>