<svg xmlns="http://www.w3.org/2000/svg" xmlns:xlink="http://www.w3.org/1999/xlink" fill="none" version="1.1" width="24" height="24" viewBox="0 0 24 24"><g><g><g><path d="M15,22.75C15,22.75,9,22.75,9,22.75C3.5699999,22.75,1.25,20.43,1.25,15C1.25,15,1.25,9,1.25,9C1.25,3.5699999,3.5699999,1.25,9,1.25C9,1.25,15,1.25,15,1.25C20.43,1.25,22.75,3.5699999,22.75,9C22.75,9,22.75,15,22.75,15C22.75,20.43,20.43,22.75,15,22.75C15,22.75,15,22.75,15,22.75ZM9,2.75C4.3900001,2.75,2.75,4.3900001,2.75,9C2.75,9,2.75,15,2.75,15C2.75,19.610001,4.3900001,21.25,9,21.25C9,21.25,15,21.25,15,21.25C19.610001,21.25,21.25,19.610001,21.25,15C21.25,15,21.25,9,21.25,9C21.25,4.3900001,19.610001,2.75,15,2.75C15,2.75,9,2.75,9,2.75C9,2.75,9,2.75,9,2.75Z" fill="#E1E1E1" fill-opacity="0.699999988079071"/><path d="M10.76000025258789,16.370006120147707C10.34000015258789,16.370006120147707,9.95000015258789,16.269996120147706,9.60000015258789,16.069996320147705C8.80000016258789,15.609995820147706,8.34000015258789,14.669995820147705,8.34000015258789,13.479996220147704C8.34000015258789,13.479996220147704,8.34000015258789,10.519995920147705,8.34000015258789,10.519995920147705C8.34000015258789,9.339996020147705,8.80000016258789,8.389999990147706,9.60000015258789,7.929999980147705C10.400000052587892,7.469999980147705,11.44000005258789,7.540000290147705,12.47000025258789,8.139999990147706C12.47000025258789,8.139999990147706,15.039999952587891,9.619995920147705,15.039999952587891,9.619995920147705C16.05999995258789,10.209996020147706,16.65000055258789,11.079995920147706,16.65000055258789,11.999996220147704C16.65000055258789,12.919995820147705,16.05999995258789,13.789996120147705,15.039999952587891,14.379995820147705C15.039999952587891,14.379995820147705,12.47000025258789,15.859996320147705,12.47000025258789,15.859996320147705C11.890000152587891,16.199995520147706,11.300000152587891,16.370006120147707,10.76000025258789,16.370006120147707C10.76000025258789,16.370006120147707,10.76000025258789,16.370006120147707,10.76000025258789,16.370006120147707ZM10.770000252587892,9.129995920147705C10.61000015258789,9.129995920147705,10.47000025258789,9.159996020147705,10.36000015258789,9.229995920147704C10.04000015258789,9.419996020147705,9.85000015258789,9.889996020147706,9.85000015258789,10.519995920147705C9.85000015258789,10.519995920147705,9.85000015258789,13.479996220147704,9.85000015258789,13.479996220147704C9.85000015258789,14.109995820147706,10.030000252587891,14.579996120147705,10.36000015258789,14.769996120147706C10.680000052587891,14.959996220147705,11.180000052587891,14.879995820147705,11.73000025258789,14.559996120147705C11.73000025258789,14.559996120147705,14.300000152587891,13.079996120147705,14.300000152587891,13.079996120147705C14.850000352587891,12.759995920147706,15.16000035258789,12.369996120147704,15.16000035258789,11.999996220147704C15.16000035258789,11.629996020147704,14.850000352587891,11.229995920147704,14.300000152587891,10.919996020147705C14.300000152587891,10.919996020147705,11.73000025258789,9.439996020147705,11.73000025258789,9.439996020147705C11.37000015258789,9.229995920147704,11.04000015258789,9.129995920147705,10.770000252587892,9.129995920147705C10.770000252587892,9.129995920147705,10.770000252587892,9.129995920147705,10.770000252587892,9.129995920147705Z" fill="#E1E1E1" fill-opacity="0.699999988079071"/><g style="opacity:0;"></g></g></g></g></svg>