<svg xmlns="http://www.w3.org/2000/svg" xmlns:xlink="http://www.w3.org/1999/xlink" fill="none" version="1.1" width="24" height="24" viewBox="0 0 24 24"><g><g><g><path d="M16.189999999999998,2C16.189999999999998,2,7.8099999,2,7.8099999,2C4.1700001,2,2,4.1700001,2,7.8099999C2,7.8099999,2,16.18,2,16.18C2,19.83,4.1700001,22,7.8099999,22C7.8099999,22,16.18,22,16.18,22C19.82,22,21.99,19.83,21.99,16.189999999999998C21.99,16.189999999999998,21.99,7.8099999,21.99,7.8099999C22,4.1700001,19.83,2,16.189999999999998,2C16.189999999999998,2,16.189999999999998,2,16.189999999999998,2ZM14.66,13.73C14.66,13.73,13.38,14.47,13.38,14.47C13.38,14.47,12.1,15.21,12.1,15.21C10.4499998,16.16,9.0999999,15.38,9.0999999,13.48C9.0999999,13.48,9.0999999,12,9.0999999,12C9.0999999,12,9.0999999,10.5200005,9.0999999,10.5200005C9.0999999,8.6100001,10.4499998,7.8400002,12.1,8.79C12.1,8.79,13.38,9.5300002,13.38,9.5300002C13.38,9.5300002,14.66,10.2700005,14.66,10.2700005C16.310000000000002,11.2200003,16.310000000000002,12.78,14.66,13.73C14.66,13.73,14.66,13.73,14.66,13.73Z" fill="#FFFFFF" fill-opacity="1"/><g style="opacity:0;"></g></g></g></g></svg>